<svg width="80" height="75" viewBox="0 0 80 75" fill="none" xmlns="http://www.w3.org/2000/svg">
<path d="M76.84 35.34V68.15C76.84 70.26 75.13 71.96 73.03 71.96H56.77C54.66 71.96 52.96 70.25 52.96 68.15V43.87C52.96 41.76 51.25 40.06 49.15 40.06H30.2C28.09 40.06 26.39 41.77 26.39 43.87V68.15C26.39 70.26 24.68 71.96 22.58 71.96H6.31C4.2 71.96 2.5 70.25 2.5 68.15V35.33C2.5 32.77 3.63 30.34 5.58 28.68L34.03 4.57C37.28 1.81 42.05 1.81 45.3 4.57L73.77 28.7C75.72 30.36 76.85 32.79 76.85 35.35L76.84 35.34Z" stroke="white" stroke-width="5" stroke-linecap="round" stroke-linejoin="round"/>
</svg>
