<svg width="76" height="78" viewBox="0 0 76 78" fill="none" xmlns="http://www.w3.org/2000/svg">
<g clip-path="url(#clip0_21_32)">
<path d="M39.5399 29.88C43.4832 29.88 46.6799 26.6833 46.6799 22.74C46.6799 18.7967 43.4832 15.6 39.5399 15.6C35.5966 15.6 32.3999 18.7967 32.3999 22.74C32.3999 26.6833 35.5966 29.88 39.5399 29.88Z" stroke="black" stroke-width="5" stroke-linecap="round" stroke-linejoin="round"/>
<path d="M39.5401 56.37C44.6001 56.37 59.78 39.7 59.78 22.74C59.78 11.56 50.7201 2.5 39.5401 2.5C28.3601 2.5 19.3 11.56 19.3 22.74C19.3 39.7 34.4801 56.37 39.5401 56.37Z" stroke="black" stroke-width="5" stroke-linecap="round" stroke-linejoin="round"/>
<path d="M53.68 42.61C54.79 42.38 55.89 42.03 56.95 41.57L61.26 39.79C66.72 37.51 72.74 41.52 72.74 47.42V61.66C72.74 65 70.73 68.02 67.65 69.31L56.95 73.76C52.06 75.79 46.58 75.79 41.69 73.76L33.53 70.37C28.67 68.34 23.16 68.34 18.27 70.37L13.96 72.17C8.5 74.43 2.5 70.42 2.5 64.52V50.28C2.5 46.94 4.51 43.92 7.59 42.63L18.26 38.18C19.62 37.6 21.05 37.21 22.48 36.96" stroke="black" stroke-width="5" stroke-linecap="round" stroke-linejoin="round"/>
</g>
<defs>
<clipPath id="clip0_21_32">
<rect width="75.24" height="77.79" fill="white"/>
</clipPath>
</defs>
</svg>
