<svg width="72" height="73" viewBox="0 0 72 73" fill="none" xmlns="http://www.w3.org/2000/svg">
<g clip-path="url(#clip0_21_43)">
<path d="M11.93 45.58C17.138 45.58 21.36 41.358 21.36 36.15C21.36 30.942 17.138 26.72 11.93 26.72C6.72196 26.72 2.5 30.942 2.5 36.15C2.5 41.358 6.72196 45.58 11.93 45.58Z" stroke="black" stroke-width="5" stroke-linecap="round" stroke-linejoin="round"/>
<path d="M60.0001 21.36C65.2081 21.36 69.4301 17.138 69.4301 11.93C69.4301 6.72196 65.2081 2.5 60.0001 2.5C54.792 2.5 50.5701 6.72196 50.5701 11.93C50.5701 17.138 54.792 21.36 60.0001 21.36Z" stroke="black" stroke-width="5" stroke-linecap="round" stroke-linejoin="round"/>
<path d="M60.0001 69.79C65.2081 69.79 69.4301 65.568 69.4301 60.36C69.4301 55.1519 65.2081 50.93 60.0001 50.93C54.792 50.93 50.5701 55.1519 50.5701 60.36C50.5701 65.568 54.792 69.79 60.0001 69.79Z" stroke="black" stroke-width="5" stroke-linecap="round" stroke-linejoin="round"/>
<path d="M51.5801 16.17L20.3501 31.91" stroke="black" stroke-width="5" stroke-linecap="round" stroke-linejoin="round"/>
<path d="M51.5801 56.12L20.3501 40.39" stroke="black" stroke-width="5" stroke-linecap="round" stroke-linejoin="round"/>
</g>
<defs>
<clipPath id="clip0_21_43">
<rect width="71.93" height="72.29" fill="white"/>
</clipPath>
</defs>
</svg>
