<svg width="67" height="77" viewBox="0 0 67 77" fill="none" xmlns="http://www.w3.org/2000/svg">
<g clip-path="url(#clip0_22_50)">
<path d="M33.2099 74.2C40.2699 74.2 45.9999 68.47 45.9999 61.41C45.9999 49.27 33.2099 39.01 33.2099 39.01C33.2099 39.01 20.4199 49.28 20.4199 61.41C20.4199 68.47 26.1499 74.2 33.2099 74.2Z" stroke="black" stroke-width="5" stroke-linecap="round" stroke-linejoin="round"/>
<path d="M63.91 43.49C63.91 19.56 40.74 18.55 33.2 2.5C17.87 12.78 27.6 25.71 17.59 33.39C13.95 30.16 11.48 26.61 9.86999 23.55C5.25999 28.9 2.48999 35.88 2.48999 43.49C2.48999 60.46 16.23 74.2 33.2 74.2C50.17 74.2 63.91 60.46 63.91 43.49Z" stroke="black" stroke-width="5" stroke-linecap="round" stroke-linejoin="round"/>
</g>
<defs>
<clipPath id="clip0_22_50">
<rect width="66.41" height="76.7" fill="white"/>
</clipPath>
</defs>
</svg>
