<svg width="66" height="68" viewBox="0 0 66 68" fill="none" xmlns="http://www.w3.org/2000/svg">
<g clip-path="url(#clip0_21_28)">
<path d="M49.43 24.28L30.61 43.1L21.2 33.69" stroke="black" stroke-width="5" stroke-linecap="round" stroke-linejoin="round"/>
<path d="M38.7801 4.49C40.5601 5.78 42.7001 6.48 44.8901 6.48C49.3901 6.48 53.3901 9.38 54.7801 13.66C55.4601 15.75 56.7801 17.57 58.5601 18.86C62.2001 21.51 63.7301 26.2 62.3401 30.48C61.6601 32.57 61.6601 34.82 62.3401 36.91C63.7301 41.19 62.2101 45.89 58.5601 48.53C56.7801 49.82 55.4601 51.64 54.7801 53.73C53.3901 58.01 49.4001 60.91 44.8901 60.91C42.6901 60.91 40.5601 61.61 38.7801 62.9C35.1401 65.55 30.2001 65.55 26.5601 62.9C24.7801 61.61 22.6401 60.91 20.4501 60.91C15.9501 60.91 11.9501 58.01 10.5601 53.73C9.8801 51.64 8.5601 49.82 6.7801 48.53C3.1401 45.88 1.6101 41.19 3.0001 36.91C3.6801 34.82 3.6801 32.57 3.0001 30.48C1.6101 26.2 3.1301 21.5 6.7801 18.86C8.5601 17.57 9.8801 15.75 10.5601 13.66C11.9501 9.38 15.9401 6.48 20.4501 6.48C22.6501 6.48 24.7801 5.78 26.5601 4.49C30.2001 1.84 35.1401 1.84 38.7801 4.49Z" stroke="black" stroke-width="5" stroke-linecap="round" stroke-linejoin="round"/>
</g>
<defs>
<clipPath id="clip0_21_28">
<rect width="65.35" height="67.38" fill="white"/>
</clipPath>
</defs>
</svg>
